<svg width="32" height="40" viewBox="0 0 32 40" fill="none" xmlns="http://www.w3.org/2000/svg">
<path d="M28.1261 7.47141C23.9652 7.24039 20.358 5.64281 18.229 3.08836L15.6549 0L13.0808 3.08836C10.9518 5.64289 7.34463 7.24039 3.18366 7.47141L0.0187988 7.64711V22.2619C0.0187988 31.5598 12.6617 38.4352 14.1029 39.1886L15.6549 40L17.2069 39.1886C18.6481 38.4353 31.291 31.5598 31.291 22.2619V7.64711L28.1261 7.47141ZM15.6549 5.23273C18.4464 8.58289 22.9143 10.5373 27.9402 10.8162C27.9402 10.8162 27.9402 19.4702 27.9402 22.2619C27.9402 29.799 15.6549 36.2198 15.6549 36.2198C15.6549 36.2198 3.36955 29.799 3.36955 22.2619C3.36955 19.4702 3.36955 10.8162 3.36955 10.8162C8.39536 10.5373 12.8633 8.58297 15.6549 5.23273Z" fill="#D02929"/>
</svg>
