<svg width="1167" height="184" viewBox="0 0 1167 184" fill="none" xmlns="http://www.w3.org/2000/svg">
<path d="M241.32 108.226C234.433 108.226 227.941 106.95 221.841 104.397C215.742 101.747 210.38 98.0657 205.757 93.3538C201.133 88.5438 197.493 82.8994 194.837 76.4206C192.279 69.8436 191 62.5304 191 54.4809C191 47.2168 192.328 40.4435 194.984 34.161C197.64 27.8785 201.33 22.3323 206.052 17.5223C210.774 12.7122 216.283 8.98199 222.579 6.33157C228.974 3.58298 235.86 2.20868 243.238 2.20868C252.879 2.20868 261.389 4.27013 268.767 8.39301C276.145 12.5159 281.605 18.0621 285.147 25.0318L267.144 38.5784C264.783 33.9647 261.34 30.3326 256.814 27.6822C252.387 25.0318 247.567 23.7066 242.353 23.7066C238.418 23.7066 234.778 24.541 231.433 26.2097C228.187 27.7804 225.334 30.0381 222.874 32.9831C220.513 35.8298 218.693 39.1674 217.414 42.9958C216.135 46.8242 215.496 50.947 215.496 55.3644C215.496 59.8799 216.185 64.0519 217.562 67.8803C218.939 71.7087 220.857 75.0463 223.317 77.893C225.776 80.6416 228.678 82.8012 232.023 84.3718C235.466 85.9425 239.254 86.7278 243.386 86.7278C248.403 86.7278 253.174 85.5007 257.7 83.0466C262.323 80.4944 266.554 76.7641 270.39 71.8559V95.7098C262.028 104.054 252.338 108.226 241.32 108.226ZM268.915 70.3835H248.551V52.8612H288.983V107.489H268.915V70.3835Z" fill="white"/>
<path d="M302.327 79.66V30.1854H325.937V74.5064C325.937 79.2182 326.872 82.8503 328.741 85.4025C330.61 87.8567 333.266 89.0837 336.709 89.0837C338.874 89.0837 340.94 88.7401 342.907 88.053C344.875 87.2677 346.793 86.0406 348.662 84.3718C350.531 82.703 352.204 80.5434 353.679 77.893V30.1854H377.29V81.2797C377.29 83.6356 377.634 85.3044 378.323 86.286C379.11 87.1695 380.438 87.7094 382.307 87.9057V107.489C380.143 107.882 378.224 108.177 376.552 108.373C374.978 108.569 373.552 108.667 372.273 108.667C368.141 108.667 364.845 107.833 362.386 106.164C359.926 104.397 358.402 101.943 357.811 98.8019L357.369 94.0901C353.827 99.1946 349.4 102.974 344.088 105.428C338.874 107.784 333.02 108.962 326.527 108.962C318.657 108.962 312.656 106.459 308.524 101.452C304.393 96.446 302.327 89.1819 302.327 79.66Z" fill="white"/>
<path d="M390.711 84.3718C390.711 79.2673 392.138 74.8009 394.991 70.9725C397.844 67.1441 401.779 64.1501 406.796 61.9905C411.813 59.7327 417.568 58.6038 424.061 58.6038C427.209 58.6038 430.308 58.8983 433.358 59.4873C436.408 59.9781 439.064 60.7143 441.326 61.696V58.3093C441.326 54.0883 440.047 50.8489 437.49 48.5911C434.932 46.3333 431.046 45.2045 425.832 45.2045C421.503 45.2045 417.421 45.9407 413.584 47.4131C409.846 48.8856 405.861 50.9961 401.631 53.7447L394.548 38.7256C399.664 35.3881 404.976 32.8849 410.485 31.2161C416.093 29.5473 421.995 28.7129 428.193 28.7129C439.802 28.7129 448.803 31.5106 455.198 37.1059C461.69 42.6031 464.937 50.6035 464.937 61.107V81.2797C464.937 83.6356 465.281 85.3044 465.97 86.286C466.757 87.1695 468.085 87.7094 469.954 87.9057V107.489C467.987 107.882 466.117 108.177 464.347 108.373C462.674 108.569 461.198 108.667 459.92 108.667C455.493 108.667 452.099 107.784 449.738 106.017C447.475 104.25 446.048 101.845 445.458 98.8019L445.016 95.4153C441.572 99.8326 437.44 103.219 432.62 105.575C427.898 107.833 422.93 108.962 417.716 108.962C412.6 108.962 407.977 107.882 403.845 105.722C399.811 103.563 396.614 100.618 394.253 96.8877C391.892 93.1575 390.711 88.9855 390.711 84.3718ZM437.637 87.3167C438.719 86.4333 439.605 85.4516 440.293 84.3718C440.982 83.292 441.326 82.2613 441.326 81.2797V74.3591C439.359 73.5738 437.145 72.9848 434.686 72.5922C432.325 72.1014 430.111 71.8559 428.045 71.8559C423.717 71.8559 420.126 72.8376 417.273 74.8008C414.42 76.666 412.994 79.1692 412.994 82.3104C412.994 84.0773 413.486 85.697 414.469 87.1695C415.453 88.642 416.781 89.8199 418.454 90.7034C420.225 91.5869 422.29 92.0286 424.651 92.0286C427.013 92.0286 429.374 91.5869 431.735 90.7034C434.096 89.8199 436.063 88.691 437.637 87.3167Z" fill="white"/>
<path d="M531.185 50.3581C525.479 50.3581 520.314 51.2906 515.69 53.1557C511.066 54.9227 507.722 57.5731 505.656 61.107V107.489H482.045V30.1854H503.737V45.7934C506.393 40.5907 509.837 36.517 514.067 33.572C518.297 30.6271 522.724 29.1056 527.348 29.0074C528.43 29.0074 529.217 29.0074 529.709 29.0074C530.299 29.0074 530.791 29.0565 531.185 29.1547V50.3581Z" fill="white"/>
<path d="M536.27 68.7638C536.27 61.2052 537.745 54.4319 540.697 48.4439C543.648 42.3577 547.681 37.5477 552.797 34.0138C557.913 30.4799 563.815 28.7129 570.505 28.7129C575.916 28.7129 580.835 30.0381 585.262 32.6886C589.688 35.2408 593.033 38.6275 595.296 42.8485V0H618.906V81.2797C618.906 83.6356 619.3 85.3044 620.087 86.286C620.874 87.1695 622.153 87.7094 623.924 87.9057V107.489C619.792 108.275 616.447 108.667 613.889 108.667C609.856 108.667 606.56 107.784 604.002 106.017C601.543 104.25 600.018 101.796 599.428 98.6547L598.985 94.679C596.231 99.4891 592.492 103.072 587.77 105.428C583.048 107.784 578.08 108.962 572.866 108.962C567.554 108.962 562.635 107.98 558.109 106.017C553.682 103.956 549.797 101.109 546.452 97.4767C543.205 93.8447 540.697 89.5745 538.926 84.6663C537.155 79.7581 536.27 74.4573 536.27 68.7638ZM595.444 78.3347V62.1377C594.46 59.4873 593.033 57.1804 591.164 55.2172C589.393 53.2539 587.327 51.6833 584.966 50.5053C582.704 49.3273 580.392 48.7384 578.031 48.7384C575.473 48.7384 573.112 49.2783 570.948 50.3581C568.882 51.4379 567.062 52.9594 565.488 54.9227C563.914 56.7878 562.684 58.9474 561.799 61.4015C561.012 63.8556 560.618 66.4569 560.618 69.2055C560.618 72.0523 561.061 74.7027 561.946 77.1568C562.93 79.5127 564.258 81.6232 565.93 83.4884C567.603 85.2553 569.57 86.6296 571.833 87.6112C574.096 88.5929 576.555 89.0837 579.211 89.0837C580.884 89.0837 582.507 88.8383 584.081 88.3475C585.655 87.7585 587.131 87.0223 588.508 86.1388C589.984 85.2553 591.312 84.1264 592.492 82.7521C593.673 81.3778 594.656 79.9054 595.444 78.3347Z" fill="white"/>
<path d="M637.248 107.489V30.1854H660.859V107.489H637.248ZM637.248 21.3506V0H660.859V21.3506H637.248Z" fill="white"/>
<path d="M672.152 84.3718C672.152 79.2673 673.579 74.8009 676.432 70.9725C679.285 67.1441 683.22 64.1501 688.237 61.9905C693.254 59.7327 699.009 58.6038 705.502 58.6038C708.65 58.6038 711.749 58.8983 714.799 59.4873C717.848 59.9781 720.505 60.7143 722.767 61.696V58.3093C722.767 54.0883 721.488 50.8489 718.93 48.5911C716.373 46.3333 712.487 45.2045 707.273 45.2045C702.944 45.2045 698.862 45.9407 695.025 47.4131C691.287 48.8856 687.302 50.9961 683.072 53.7447L675.989 38.7256C681.105 35.3881 686.417 32.8849 691.926 31.2161C697.533 29.5473 703.436 28.7129 709.634 28.7129C721.242 28.7129 730.244 31.5106 736.638 37.1059C743.131 42.6031 746.378 50.6035 746.378 61.107V81.2797C746.378 83.6356 746.722 85.3044 747.411 86.286C748.198 87.1695 749.526 87.7094 751.395 87.9057V107.489C749.427 107.882 747.558 108.177 745.787 108.373C744.115 108.569 742.639 108.667 741.36 108.667C736.933 108.667 733.539 107.784 731.178 106.017C728.916 104.25 727.489 101.845 726.899 98.8019L726.456 95.4153C723.013 99.8326 718.881 103.219 714.061 105.575C709.339 107.833 704.371 108.962 699.157 108.962C694.041 108.962 689.417 107.882 685.286 105.722C681.252 103.563 678.055 100.618 675.694 96.8877C673.333 93.1575 672.152 88.9855 672.152 84.3718ZM719.078 87.3167C720.16 86.4333 721.046 85.4516 721.734 84.3718C722.423 83.292 722.767 82.2613 722.767 81.2797V74.3591C720.8 73.5738 718.586 72.9848 716.127 72.5922C713.766 72.1014 711.552 71.8559 709.486 71.8559C705.158 71.8559 701.567 72.8376 698.714 74.8008C695.861 76.666 694.435 79.1692 694.435 82.3104C694.435 84.0773 694.926 85.697 695.91 87.1695C696.894 88.642 698.222 89.8199 699.895 90.7034C701.665 91.5869 703.731 92.0286 706.092 92.0286C708.453 92.0286 710.814 91.5869 713.175 90.7034C715.536 89.8199 717.504 88.691 719.078 87.3167Z" fill="white"/>
<path d="M838.154 107.489H814.544V64.0519C814.544 58.9474 813.56 55.2663 811.592 53.0085C809.723 50.6525 807.215 49.4746 804.066 49.4746C801.902 49.4746 799.689 50.0636 797.426 51.2415C795.163 52.4195 793.097 54.0392 791.228 56.1006C789.458 58.1621 788.08 60.518 787.096 63.1684V107.489H763.486V30.1854H784.735V43.143C786.703 40.0999 789.162 37.4986 792.114 35.339C795.065 33.1794 798.459 31.5597 802.296 30.4799C806.132 29.3019 810.313 28.7129 814.839 28.7129C819.856 28.7129 823.889 29.6455 826.939 31.5106C830.087 33.2775 832.448 35.6335 834.022 38.5784C835.695 41.5233 836.777 44.7136 837.269 48.1494C837.859 51.4869 838.154 54.7754 838.154 58.0148V107.489Z" fill="white"/>
<path d="M934.618 108.226C927.732 108.226 921.239 106.95 915.14 104.397C909.04 101.747 903.679 98.0657 899.055 93.3538C894.431 88.5438 890.791 82.8994 888.135 76.4206C885.577 69.8436 884.298 62.5304 884.298 54.4809C884.298 47.2168 885.626 40.4435 888.283 34.161C890.939 27.8785 894.628 22.3323 899.35 17.5223C904.072 12.7122 909.581 8.98199 915.877 6.33157C922.272 3.58298 929.158 2.20868 936.536 2.20868C946.177 2.20868 954.687 4.27013 962.065 8.39301C969.444 12.5159 974.903 18.0621 978.445 25.0318L960.442 38.5784C958.081 33.9647 954.638 30.3326 950.112 27.6822C945.686 25.0318 940.865 23.7066 935.651 23.7066C931.716 23.7066 928.076 24.541 924.731 26.2097C921.485 27.7804 918.632 30.0381 916.172 32.9831C913.811 35.8298 911.991 39.1674 910.713 42.9958C909.434 46.8242 908.794 50.947 908.794 55.3644C908.794 59.8799 909.483 64.0519 910.86 67.8803C912.237 71.7087 914.156 75.0463 916.615 77.893C919.075 80.6416 921.977 82.8012 925.322 84.3718C928.765 85.9425 932.552 86.7278 936.684 86.7278C941.701 86.7278 946.473 85.5007 950.998 83.0466C955.622 80.4944 959.852 76.7641 963.689 71.8559V95.7098C955.327 104.054 945.636 108.226 934.618 108.226ZM962.213 70.3835H941.849V52.8612H982.282V107.489H962.213V70.3835Z" fill="white"/>
<path d="M998.281 107.489V2.94491H1042.99C1048.01 2.94491 1052.59 3.97563 1056.72 6.03708C1060.95 8.00035 1064.59 10.6999 1067.64 14.1356C1070.69 17.4732 1073.05 21.2525 1074.72 25.4735C1076.39 29.6946 1077.23 34.0138 1077.23 38.4311C1077.23 44.4191 1075.8 50.1127 1072.95 55.5117C1070.19 60.9107 1066.31 65.328 1061.29 68.7638C1056.37 72.1013 1050.52 73.7701 1043.73 73.7701H1022.48V107.489H998.281ZM1022.48 52.714H1042.26C1044.12 52.714 1045.85 52.1741 1047.42 51.0943C1048.99 50.0145 1050.27 48.3948 1051.26 46.2352C1052.24 44.0756 1052.73 41.4251 1052.73 38.2839C1052.73 35.0445 1052.14 32.3941 1050.96 30.3326C1049.88 28.173 1048.45 26.6024 1046.68 25.6208C1045.01 24.6391 1043.24 24.1483 1041.37 24.1483H1022.48V52.714Z" fill="white"/>
<path d="M1153.08 33.572C1152.79 33.0812 1151.76 32.345 1149.99 31.3633C1148.21 30.2835 1146 29.1547 1143.34 27.9767C1140.69 26.7987 1137.79 25.768 1134.64 24.8845C1131.49 24.0011 1128.34 23.5593 1125.19 23.5593C1121.06 23.5593 1117.87 24.2956 1115.6 25.768C1113.34 27.1423 1112.21 29.3019 1112.21 32.2468C1112.21 34.6028 1113.04 36.4679 1114.72 37.8422C1116.49 39.2165 1119 40.4435 1122.24 41.5233C1125.49 42.5049 1129.47 43.6829 1134.2 45.0572C1140.89 46.8242 1146.69 48.9838 1151.61 51.536C1156.53 53.9901 1160.27 57.1804 1162.82 61.107C1165.48 65.0335 1166.81 70.2362 1166.81 76.715C1166.81 82.6049 1165.73 87.6112 1163.56 91.7341C1161.4 95.7588 1158.45 99.0473 1154.71 101.6C1151.07 104.054 1146.89 105.87 1142.16 107.048C1137.44 108.127 1132.57 108.667 1127.56 108.667C1122.44 108.667 1117.18 108.177 1111.77 107.195C1106.45 106.115 1101.34 104.643 1096.42 102.778C1091.5 100.814 1086.97 98.4584 1082.84 95.7098L1093.47 74.6536C1093.86 75.1444 1095.14 76.077 1097.3 77.4513C1099.47 78.7274 1102.12 80.1017 1105.27 81.5742C1108.52 82.9485 1112.11 84.1755 1116.05 85.2553C1119.98 86.3351 1123.96 86.875 1128 86.875C1132.33 86.875 1135.52 86.1879 1137.59 84.8136C1139.75 83.4393 1140.84 81.5251 1140.84 79.071C1140.84 76.4206 1139.7 74.3591 1137.44 72.8867C1135.28 71.4142 1132.28 70.089 1128.44 68.911C1124.7 67.7331 1120.37 66.4078 1115.46 64.9354C1109.06 62.9721 1103.75 60.7634 1099.52 58.3093C1095.39 55.8552 1092.29 52.8612 1090.22 49.3273C1088.25 45.7934 1087.27 41.3761 1087.27 36.0752C1087.27 28.7129 1088.99 22.5286 1092.43 17.5223C1095.98 12.4177 1100.7 8.58933 1106.6 6.03708C1112.5 3.38665 1118.95 2.06144 1125.93 2.06144C1130.85 2.06144 1135.57 2.65042 1140.1 3.82838C1144.72 5.00635 1149 6.47881 1152.94 8.24576C1156.97 10.0127 1160.56 11.7797 1163.71 13.5466L1153.08 33.572Z" fill="white"/>
<path d="M206 183.509V148.661H220.953C222.495 148.661 223.905 148.988 225.184 149.643C226.462 150.264 227.577 151.115 228.528 152.195C229.479 153.242 230.217 154.436 230.742 155.778C231.266 157.087 231.529 158.428 231.529 159.803C231.529 161.406 231.217 162.928 230.594 164.367C230.004 165.807 229.151 167.034 228.036 168.048C226.954 169.063 225.675 169.766 224.2 170.159L232.66 183.509H227.643L219.674 170.993H210.427V183.509H206ZM210.427 167.067H221.002C222.216 167.067 223.265 166.74 224.151 166.085C225.069 165.398 225.774 164.498 226.266 163.386C226.79 162.273 227.053 161.079 227.053 159.803C227.053 158.494 226.758 157.299 226.167 156.22C225.577 155.107 224.806 154.224 223.855 153.569C222.904 152.915 221.855 152.588 220.707 152.588H210.427V167.067Z" fill="white"/>
<path d="M235.238 176.098C235.238 174.462 235.697 173.055 236.616 171.877C237.567 170.666 238.862 169.734 240.501 169.079C242.141 168.425 244.043 168.097 246.207 168.097C247.355 168.097 248.568 168.196 249.847 168.392C251.126 168.556 252.258 168.817 253.241 169.177V167.312C253.241 165.349 252.651 163.811 251.471 162.698C250.29 161.553 248.618 160.981 246.453 160.981C245.043 160.981 243.682 161.242 242.371 161.766C241.092 162.257 239.731 162.977 238.288 163.925L236.714 160.882C238.386 159.737 240.059 158.886 241.731 158.33C243.404 157.741 245.142 157.447 246.945 157.447C250.224 157.447 252.815 158.363 254.717 160.195C256.619 161.995 257.57 164.514 257.57 167.754V178.601C257.57 179.125 257.668 179.517 257.865 179.779C258.095 180.008 258.455 180.139 258.947 180.172V183.509C258.521 183.575 258.144 183.624 257.816 183.656C257.521 183.689 257.275 183.706 257.078 183.706C256.061 183.706 255.291 183.427 254.766 182.871C254.274 182.315 253.996 181.726 253.93 181.104L253.832 179.484C252.717 180.924 251.257 182.037 249.454 182.822C247.65 183.607 245.863 184 244.092 184C242.387 184 240.862 183.656 239.518 182.969C238.173 182.249 237.124 181.301 236.37 180.123C235.615 178.912 235.238 177.57 235.238 176.098ZM251.962 177.914C252.356 177.456 252.667 176.998 252.897 176.54C253.127 176.049 253.241 175.64 253.241 175.313V172.122C252.225 171.73 251.159 171.435 250.044 171.239C248.929 171.01 247.831 170.895 246.748 170.895C244.551 170.895 242.764 171.337 241.387 172.22C240.042 173.071 239.37 174.249 239.37 175.754C239.37 176.572 239.583 177.374 240.01 178.159C240.469 178.912 241.125 179.534 241.977 180.024C242.863 180.515 243.945 180.761 245.224 180.761C246.568 180.761 247.847 180.499 249.06 179.975C250.274 179.419 251.241 178.732 251.962 177.914Z" fill="white"/>
<path d="M273.296 184C271.164 184 269.164 183.656 267.295 182.969C265.426 182.249 263.819 181.186 262.475 179.779L264.147 176.736C265.623 178.11 267.098 179.092 268.574 179.681C270.05 180.27 271.558 180.564 273.099 180.564C274.87 180.564 276.313 180.237 277.428 179.583C278.543 178.895 279.1 177.897 279.1 176.589C279.1 175.64 278.805 174.936 278.215 174.478C277.657 174.02 276.854 173.644 275.805 173.349C274.755 173.022 273.509 172.662 272.066 172.269C270.296 171.746 268.803 171.19 267.59 170.601C266.377 170.012 265.459 169.275 264.836 168.392C264.213 167.508 263.901 166.396 263.901 165.054C263.901 163.418 264.327 162.044 265.18 160.932C266.033 159.786 267.197 158.919 268.672 158.33C270.181 157.741 271.886 157.447 273.788 157.447C275.69 157.447 277.411 157.741 278.953 158.33C280.494 158.919 281.822 159.786 282.937 160.932L280.969 163.925C279.953 162.878 278.838 162.109 277.625 161.619C276.411 161.095 275.05 160.833 273.542 160.833C272.657 160.833 271.788 160.948 270.935 161.177C270.082 161.373 269.377 161.75 268.82 162.306C268.262 162.829 267.984 163.582 267.984 164.564C267.984 165.382 268.197 166.036 268.623 166.527C269.082 166.985 269.738 167.378 270.591 167.705C271.476 168.032 272.542 168.392 273.788 168.785C275.723 169.341 277.395 169.897 278.805 170.453C280.248 171.01 281.363 171.73 282.15 172.613C282.937 173.496 283.33 174.724 283.33 176.294C283.33 178.716 282.412 180.613 280.576 181.988C278.74 183.329 276.313 184 273.296 184Z" fill="white"/>
<path d="M301.79 182.233C301.429 182.397 300.937 182.609 300.314 182.871C299.691 183.133 298.97 183.362 298.15 183.558C297.33 183.755 296.461 183.853 295.543 183.853C294.494 183.853 293.526 183.673 292.641 183.313C291.756 182.92 291.05 182.331 290.526 181.546C290.001 180.728 289.739 179.714 289.739 178.503V161.275H286.246V157.888H289.739V149.348H294.067V157.888H299.822V161.275H294.067V177.178C294.133 178.094 294.444 178.781 295.002 179.239C295.559 179.664 296.215 179.877 296.969 179.877C297.822 179.877 298.609 179.73 299.331 179.435C300.052 179.141 300.527 178.928 300.757 178.797L301.79 182.233Z" fill="white"/>
<path d="M319.378 161.668C317.214 161.7 315.295 162.257 313.623 163.337C311.983 164.384 310.819 165.84 310.13 167.705V183.509H305.802V157.888H309.835V163.827C310.721 162.06 311.885 160.637 313.328 159.557C314.803 158.445 316.345 157.823 317.951 157.692C318.279 157.692 318.558 157.692 318.788 157.692C319.017 157.692 319.214 157.708 319.378 157.741V161.668Z" fill="white"/>
<path d="M334.409 184C332.474 184 330.704 183.656 329.097 182.969C327.523 182.249 326.146 181.284 324.965 180.073C323.817 178.83 322.916 177.407 322.26 175.803C321.637 174.2 321.325 172.498 321.325 170.699C321.325 168.277 321.883 166.069 322.998 164.073C324.112 162.077 325.654 160.473 327.621 159.263C329.622 158.052 331.901 157.447 334.458 157.447C337.049 157.447 339.295 158.068 341.197 159.312C343.132 160.522 344.624 162.126 345.673 164.122C346.756 166.085 347.297 168.212 347.297 170.502C347.297 170.83 347.28 171.157 347.247 171.484C347.247 171.779 347.231 172.008 347.198 172.171H325.9C326.031 173.84 326.49 175.329 327.277 176.638C328.097 177.914 329.146 178.928 330.425 179.681C331.704 180.401 333.081 180.761 334.557 180.761C336.131 180.761 337.606 180.368 338.984 179.583C340.394 178.797 341.361 177.767 341.886 176.49L345.624 177.521C345.067 178.765 344.231 179.877 343.116 180.859C342.033 181.84 340.738 182.609 339.23 183.166C337.754 183.722 336.147 184 334.409 184ZM325.752 169.177H343.263C343.132 167.508 342.657 166.036 341.837 164.76C341.017 163.484 339.968 162.486 338.689 161.766C337.41 161.046 336 160.686 334.458 160.686C332.95 160.686 331.556 161.046 330.277 161.766C328.998 162.486 327.949 163.484 327.129 164.76C326.342 166.036 325.883 167.508 325.752 169.177Z" fill="white"/>
<path d="M363.323 184C361.388 184 359.634 183.656 358.06 182.969C356.486 182.249 355.125 181.284 353.977 180.073C352.83 178.83 351.944 177.407 351.321 175.803C350.698 174.2 350.387 172.515 350.387 170.748C350.387 168.948 350.698 167.247 351.321 165.643C351.944 164.04 352.83 162.633 353.977 161.422C355.125 160.179 356.486 159.214 358.06 158.526C359.667 157.807 361.421 157.447 363.323 157.447C365.258 157.447 367.012 157.807 368.586 158.526C370.16 159.214 371.521 160.179 372.669 161.422C373.85 162.633 374.751 164.04 375.374 165.643C375.997 167.247 376.309 168.948 376.309 170.748C376.309 172.515 375.997 174.2 375.374 175.803C374.751 177.407 373.866 178.83 372.718 180.073C371.57 181.284 370.193 182.249 368.586 182.969C367.012 183.656 365.258 184 363.323 184ZM354.814 170.797C354.814 172.564 355.191 174.167 355.945 175.607C356.732 177.047 357.765 178.192 359.044 179.043C360.323 179.861 361.749 180.27 363.323 180.27C364.897 180.27 366.324 179.844 367.603 178.994C368.914 178.143 369.947 176.998 370.702 175.558C371.489 174.085 371.882 172.466 371.882 170.699C371.882 168.932 371.489 167.329 370.702 165.889C369.947 164.449 368.914 163.304 367.603 162.453C366.324 161.602 364.897 161.177 363.323 161.177C361.749 161.177 360.323 161.619 359.044 162.502C357.765 163.353 356.732 164.498 355.945 165.938C355.191 167.378 354.814 168.997 354.814 170.797Z" fill="white"/>
<path d="M415.196 155.974C414.802 155.516 414.277 155.074 413.622 154.649C412.966 154.224 412.228 153.847 411.408 153.52C410.588 153.16 409.686 152.882 408.703 152.686C407.752 152.457 406.752 152.342 405.702 152.342C403.013 152.342 401.029 152.849 399.75 153.864C398.471 154.878 397.832 156.269 397.832 158.036C397.832 159.279 398.16 160.261 398.816 160.981C399.472 161.7 400.472 162.289 401.816 162.748C403.194 163.206 404.932 163.68 407.03 164.171C409.457 164.694 411.556 165.333 413.326 166.085C415.097 166.838 416.458 167.852 417.409 169.128C418.36 170.372 418.836 172.04 418.836 174.135C418.836 175.803 418.508 177.259 417.852 178.503C417.229 179.714 416.343 180.728 415.196 181.546C414.048 182.331 412.703 182.92 411.162 183.313C409.621 183.673 407.948 183.853 406.145 183.853C404.374 183.853 402.636 183.673 400.931 183.313C399.258 182.92 397.668 182.364 396.16 181.644C394.651 180.924 393.241 180.024 391.929 178.945L394.045 175.214C394.569 175.771 395.241 176.327 396.061 176.883C396.914 177.407 397.865 177.897 398.914 178.356C399.996 178.814 401.16 179.19 402.407 179.484C403.653 179.746 404.932 179.877 406.243 179.877C408.735 179.877 410.67 179.435 412.048 178.552C413.425 177.636 414.113 176.311 414.113 174.576C414.113 173.267 413.72 172.22 412.933 171.435C412.179 170.65 411.047 169.995 409.539 169.472C408.03 168.948 406.194 168.425 404.03 167.901C401.669 167.312 399.685 166.674 398.078 165.987C396.471 165.267 395.258 164.335 394.438 163.189C393.651 162.044 393.257 160.555 393.257 158.723C393.257 156.498 393.799 154.616 394.881 153.078C395.963 151.54 397.455 150.379 399.357 149.594C401.259 148.808 403.407 148.416 405.801 148.416C407.375 148.416 408.834 148.579 410.178 148.906C411.556 149.234 412.835 149.692 414.015 150.281C415.196 150.87 416.278 151.573 417.261 152.391L415.196 155.974Z" fill="white"/>
<path d="M421.953 176.098C421.953 174.462 422.412 173.055 423.33 171.877C424.281 170.666 425.576 169.734 427.216 169.079C428.856 168.425 430.758 168.097 432.922 168.097C434.07 168.097 435.283 168.196 436.562 168.392C437.841 168.556 438.972 168.817 439.956 169.177V167.312C439.956 165.349 439.366 163.811 438.185 162.698C437.005 161.553 435.332 160.981 433.168 160.981C431.758 160.981 430.397 161.242 429.085 161.766C427.806 162.257 426.445 162.977 425.003 163.925L423.428 160.882C425.101 159.737 426.773 158.886 428.446 158.33C430.118 157.741 431.856 157.447 433.66 157.447C436.939 157.447 439.53 158.363 441.431 160.195C443.333 161.995 444.284 164.514 444.284 167.754V178.601C444.284 179.125 444.383 179.517 444.58 179.779C444.809 180.008 445.17 180.139 445.662 180.172V183.509C445.235 183.575 444.858 183.624 444.53 183.656C444.235 183.689 443.989 183.706 443.793 183.706C442.776 183.706 442.005 183.427 441.481 182.871C440.989 182.315 440.71 181.726 440.644 181.104L440.546 179.484C439.431 180.924 437.972 182.037 436.168 182.822C434.365 183.607 432.578 184 430.807 184C429.102 184 427.577 183.656 426.232 182.969C424.888 182.249 423.838 181.301 423.084 180.123C422.33 178.912 421.953 177.57 421.953 176.098ZM438.677 177.914C439.07 177.456 439.382 176.998 439.611 176.54C439.841 176.049 439.956 175.64 439.956 175.313V172.122C438.939 171.73 437.874 171.435 436.759 171.239C435.644 171.01 434.545 170.895 433.463 170.895C431.266 170.895 429.479 171.337 428.101 172.22C426.757 173.071 426.085 174.249 426.085 175.754C426.085 176.572 426.298 177.374 426.724 178.159C427.183 178.912 427.839 179.534 428.692 180.024C429.577 180.515 430.659 180.761 431.938 180.761C433.283 180.761 434.561 180.499 435.775 179.975C436.988 179.419 437.955 178.732 438.677 177.914Z" fill="white"/>
<path d="M464.295 182.233C463.934 182.397 463.442 182.609 462.819 182.871C462.196 183.133 461.474 183.362 460.655 183.558C459.835 183.755 458.966 183.853 458.048 183.853C456.998 183.853 456.031 183.673 455.145 183.313C454.26 182.92 453.555 182.331 453.03 181.546C452.506 180.728 452.243 179.714 452.243 178.503V161.275H448.751V157.888H452.243V149.348H456.572V157.888H462.327V161.275H456.572V177.178C456.638 178.094 456.949 178.781 457.507 179.239C458.064 179.664 458.72 179.877 459.474 179.877C460.327 179.877 461.114 179.73 461.835 179.435C462.557 179.141 463.032 178.928 463.262 178.797L464.295 182.233Z" fill="white"/>
<path d="M479.333 184C477.398 184 475.627 183.656 474.02 182.969C472.446 182.249 471.069 181.284 469.889 180.073C468.741 178.83 467.839 177.407 467.183 175.803C466.56 174.2 466.249 172.498 466.249 170.699C466.249 168.277 466.806 166.069 467.921 164.073C469.036 162.077 470.577 160.473 472.545 159.263C474.545 158.052 476.824 157.447 479.382 157.447C481.973 157.447 484.219 158.068 486.121 159.312C488.056 160.522 489.548 162.126 490.597 164.122C491.679 166.085 492.22 168.212 492.22 170.502C492.22 170.83 492.204 171.157 492.171 171.484C492.171 171.779 492.155 172.008 492.122 172.171H470.823C470.954 173.84 471.413 175.329 472.2 176.638C473.02 177.914 474.07 178.928 475.348 179.681C476.627 180.401 478.005 180.761 479.48 180.761C481.054 180.761 482.53 180.368 483.907 179.583C485.317 178.797 486.285 177.767 486.809 176.49L490.548 177.521C489.99 178.765 489.154 179.877 488.039 180.859C486.957 181.84 485.662 182.609 484.153 183.166C482.678 183.722 481.071 184 479.333 184ZM470.676 169.177H488.187C488.055 167.508 487.58 166.036 486.76 164.76C485.94 163.484 484.891 162.486 483.612 161.766C482.333 161.046 480.923 160.686 479.382 160.686C477.873 160.686 476.48 161.046 475.201 161.766C473.922 162.486 472.873 163.484 472.053 164.76C471.266 166.036 470.807 167.508 470.676 169.177Z" fill="white"/>
<path d="M497.13 147.679H501.459V176.883C501.459 178.29 501.655 179.157 502.049 179.484C502.442 179.812 502.918 179.975 503.475 179.975C504.164 179.975 504.82 179.91 505.443 179.779C506.066 179.615 506.591 179.452 507.017 179.288L507.706 182.822C506.984 183.117 506.132 183.362 505.148 183.558C504.164 183.755 503.295 183.853 502.541 183.853C500.868 183.853 499.54 183.378 498.557 182.429C497.606 181.48 497.13 180.155 497.13 178.454V147.679Z" fill="white"/>
<path d="M511.106 183.509V157.888H515.435V183.509H511.106ZM511.106 153.078V147.679H515.435V153.078H511.106Z" fill="white"/>
<path d="M535.724 182.233C535.363 182.397 534.871 182.609 534.248 182.871C533.625 183.133 532.903 183.362 532.084 183.558C531.264 183.755 530.395 183.853 529.477 183.853C528.427 183.853 527.46 183.673 526.574 183.313C525.689 182.92 524.984 182.331 524.459 181.546C523.935 180.728 523.672 179.714 523.672 178.503V161.275H520.18V157.888H523.672V149.348H528.001V157.888H533.756V161.275H528.001V177.178C528.066 178.094 528.378 178.781 528.935 179.239C529.493 179.664 530.149 179.877 530.903 179.877C531.756 179.877 532.543 179.73 533.264 179.435C533.986 179.141 534.461 178.928 534.691 178.797L535.724 182.233Z" fill="white"/>
<path d="M537.719 176.098C537.719 174.462 538.178 173.055 539.096 171.877C540.047 170.666 541.342 169.734 542.982 169.079C544.621 168.425 546.523 168.097 548.688 168.097C549.835 168.097 551.049 168.196 552.328 168.392C553.607 168.556 554.738 168.817 555.722 169.177V167.312C555.722 165.349 555.131 163.811 553.951 162.698C552.77 161.553 551.098 160.981 548.934 160.981C547.524 160.981 546.163 161.242 544.851 161.766C543.572 162.257 542.211 162.977 540.768 163.925L539.194 160.882C540.867 159.737 542.539 158.886 544.212 158.33C545.884 157.741 547.622 157.447 549.426 157.447C552.705 157.447 555.295 158.363 557.197 160.195C559.099 161.995 560.05 164.514 560.05 167.754V178.601C560.05 179.125 560.149 179.517 560.345 179.779C560.575 180.008 560.936 180.139 561.428 180.172V183.509C561.001 183.575 560.624 183.624 560.296 183.656C560.001 183.689 559.755 183.706 559.558 183.706C558.542 183.706 557.771 183.427 557.247 182.871C556.755 182.315 556.476 181.726 556.41 181.104L556.312 179.484C555.197 180.924 553.738 182.037 551.934 182.822C550.131 183.607 548.343 184 546.573 184C544.867 184 543.343 183.656 541.998 182.969C540.654 182.249 539.604 181.301 538.85 180.123C538.096 178.912 537.719 177.57 537.719 176.098ZM554.443 177.914C554.836 177.456 555.148 176.998 555.377 176.54C555.607 176.049 555.722 175.64 555.722 175.313V172.122C554.705 171.73 553.639 171.435 552.524 171.239C551.409 171.01 550.311 170.895 549.229 170.895C547.032 170.895 545.245 171.337 543.867 172.22C542.523 173.071 541.851 174.249 541.851 175.754C541.851 176.572 542.064 177.374 542.49 178.159C542.949 178.912 543.605 179.534 544.458 180.024C545.343 180.515 546.425 180.761 547.704 180.761C549.048 180.761 550.327 180.499 551.541 179.975C552.754 179.419 553.721 178.732 554.443 177.914Z" fill="white"/>
<path d="M567.07 147.679H571.399V176.883C571.399 178.29 571.595 179.157 571.989 179.484C572.382 179.812 572.858 179.975 573.415 179.975C574.104 179.975 574.76 179.91 575.383 179.779C576.006 179.615 576.531 179.452 576.957 179.288L577.646 182.822C576.924 183.117 576.072 183.362 575.088 183.558C574.104 183.755 573.235 183.853 572.481 183.853C570.808 183.853 569.48 183.378 568.496 182.429C567.546 181.48 567.07 180.155 567.07 178.454V147.679Z" fill="white"/>
<g clip-path="url(#clip0_113_22)">
<path d="M129.358 34.3685C110.221 33.3058 93.6308 25.9569 83.8389 14.2065L72.0004 0L60.1615 14.2065C50.3699 25.9573 33.7798 33.3058 14.6427 34.3685L0.0869141 35.1767V102.405C0.0869141 145.175 58.2338 176.802 64.8625 180.268L72.0004 184L79.1383 180.268C85.7666 176.802 143.913 145.175 143.913 102.405V35.1767L129.358 34.3685ZM72.0004 24.0706C84.839 39.4813 105.388 48.4714 128.503 49.7544C128.503 49.7544 128.503 89.5627 128.503 102.405C128.503 137.075 72.0004 166.611 72.0004 166.611C72.0004 166.611 15.4976 137.075 15.4976 102.405C15.4976 89.5627 15.4976 49.7544 15.4976 49.7544C38.6123 48.4714 59.1613 39.4817 72.0004 24.0706Z" fill="#B92929"/>
</g>
<defs>
<clipPath id="clip0_113_22">
<rect width="144" height="184" fill="white"/>
</clipPath>
</defs>
</svg>
